<svg xmlns="http://www.w3.org/2000/svg" width="1280" height="720" viewBox="0 0 1280 720" role="img" aria-label="Larger waveform thumbnail with thin center for YouTube play button">
  <rect width="1280" height="720" fill="#000"/>
  <g fill="#f2f2f2">
    <rect x="564" y="349" width="12" height="22" rx="1"/>
    <rect x="704" y="349" width="12" height="22" rx="1"/>
    <rect x="546" y="348" width="12" height="24" rx="1"/>
    <rect x="722" y="348" width="12" height="24" rx="1"/>
    <rect x="528" y="347" width="12" height="26" rx="1"/>
    <rect x="740" y="347" width="12" height="26" rx="1"/>
    <rect x="510" y="345" width="12" height="30" rx="1"/>
    <rect x="758" y="345" width="12" height="30" rx="1"/>
    <rect x="492" y="343" width="12" height="34" rx="1"/>
    <rect x="776" y="343" width="12" height="34" rx="1"/>
    <rect x="474" y="340" width="12" height="40" rx="1"/>
    <rect x="794" y="340" width="12" height="40" rx="1"/>
    <rect x="456" y="336" width="12" height="48" rx="1"/>
    <rect x="812" y="336" width="12" height="48" rx="1"/>
    <rect x="438" y="329" width="12" height="62" rx="1"/>
    <rect x="830" y="329" width="12" height="62" rx="1"/>
    <rect x="420" y="321" width="12" height="78" rx="1"/>
    <rect x="848" y="321" width="12" height="78" rx="1"/>
    <rect x="402" y="312" width="12" height="96" rx="1"/>
    <rect x="866" y="312" width="12" height="96" rx="1"/>
    <rect x="384" y="300" width="12" height="120" rx="1"/>
    <rect x="884" y="300" width="12" height="120" rx="1"/>
    <rect x="366" y="306" width="12" height="108" rx="1"/>
    <rect x="902" y="306" width="12" height="108" rx="1"/>
    <rect x="348" y="316" width="12" height="88" rx="1"/>
    <rect x="920" y="316" width="12" height="88" rx="1"/>
    <rect x="330" y="325" width="12" height="70" rx="1"/>
    <rect x="938" y="325" width="12" height="70" rx="1"/>
    <rect x="312" y="332" width="12" height="56" rx="1"/>
    <rect x="956" y="332" width="12" height="56" rx="1"/>
    <rect x="294" y="337" width="12" height="46" rx="1"/>
    <rect x="974" y="337" width="12" height="46" rx="1"/>
    <rect x="276" y="341" width="12" height="38" rx="1"/>
    <rect x="992" y="341" width="12" height="38" rx="1"/>
    <rect x="258" y="344" width="12" height="32" rx="1"/>
    <rect x="1010" y="344" width="12" height="32" rx="1"/>
    <rect x="240" y="346" width="12" height="28" rx="1"/>
    <rect x="1028" y="346" width="12" height="28" rx="1"/>
    <rect x="222" y="348" width="12" height="24" rx="1"/>
    <rect x="1046" y="348" width="12" height="24" rx="1"/>
    <rect x="204" y="349" width="12" height="22" rx="1"/>
    <rect x="1064" y="349" width="12" height="22" rx="1"/>
    <rect x="186" y="350" width="12" height="20" rx="1"/>
    <rect x="1082" y="350" width="12" height="20" rx="1"/>
    <rect x="168" y="351" width="12" height="18" rx="1"/>
    <rect x="1100" y="351" width="12" height="18" rx="1"/>
    <rect x="150" y="352" width="12" height="16" rx="1"/>
    <rect x="1118" y="352" width="12" height="16" rx="1"/>
    <rect x="132" y="353" width="12" height="14" rx="1"/>
    <rect x="1136" y="353" width="12" height="14" rx="1"/>
    <rect x="114" y="354" width="12" height="12" rx="1"/>
    <rect x="1154" y="354" width="12" height="12" rx="1"/>
    <rect x="96" y="354" width="12" height="12" rx="1"/>
    <rect x="1172" y="354" width="12" height="12" rx="1"/>
    <rect x="78" y="354" width="12" height="12" rx="1"/>
    <rect x="1190" y="354" width="12" height="12" rx="1"/>
  </g>
</svg>

